<?xml version="1.0" standalone="no"?>
<!DOCTYPE svg PUBLIC "-//W3C//DTD SVG 20010904//EN"
 "http://www.w3.org/TR/2001/REC-SVG-20010904/DTD/svg10.dtd">
<svg version="1.0" xmlns="http://www.w3.org/2000/svg"
 width="821.000000pt" height="821.000000pt" viewBox="0 0 821.000000 821.000000"
 preserveAspectRatio="xMidYMid meet">
<metadata>
Created by potrace 1.11, written by Peter Selinger 2001-2013
</metadata>
<g transform="translate(0.000000,821.000000) scale(0.100000,-0.100000)"
fill="#000000" stroke="none">
<path d="M4159 7586 c-2 -2 -20 -7 -39 -10 -255 -41 -473 -229 -561 -483 -46
-133 -54 -213 -53 -498 1 -161 6 -252 16 -302 8 -40 13 -75 11 -77 -6 -6 -43
5 -43 14 0 6 -268 485 -311 555 -10 17 -23 39 -28 50 -5 11 -23 45 -41 75 -30
50 -68 118 -151 267 l-29 51 21 36 c36 62 11 125 -58 145 -33 10 -79 -5 -102
-33 -8 -9 -15 -34 -17 -56 -2 -32 3 -45 26 -70 23 -24 36 -30 72 -30 l43 0 60
-107 c85 -151 106 -188 155 -273 23 -41 56 -100 73 -130 17 -30 84 -149 149
-264 65 -115 117 -211 114 -213 -4 -5 -297 48 -396 71 -14 3 -36 8 -50 10 -14
3 -50 10 -80 16 -30 6 -66 13 -80 15 -14 2 -58 11 -98 19 -40 9 -76 16 -78 16
-3 0 -3 17 1 37 7 46 7 325 0 408 -33 381 -207 618 -521 706 -75 21 -100 23
-511 26 l-433 3 0 -445 c0 -369 -2 -445 -14 -445 -12 0 -74 11 -136 25 -14 3
-59 12 -100 19 -41 8 -133 26 -205 40 -71 15 -140 27 -153 28 -17 2 -25 12
-32 39 -13 47 -39 69 -89 76 -35 5 -44 2 -71 -25 -78 -79 2 -201 104 -158 20
8 36 20 36 25 0 6 6 11 13 11 6 0 155 -41 330 -92 l317 -93 0 -440 0 -441 423
2 c400 1 427 2 507 23 212 54 352 165 443 351 l42 86 140 -43 c77 -23 149 -45
160 -47 11 -2 148 -43 305 -89 157 -47 321 -95 365 -107 44 -13 85 -28 92 -34
11 -10 64 -102 156 -266 16 -30 74 -131 127 -225 54 -93 110 -192 125 -220 16
-27 77 -136 136 -242 60 -106 118 -209 130 -230 12 -21 38 -67 59 -103 20 -36
48 -85 62 -110 14 -25 49 -88 79 -140 l53 -95 1 -399 0 -400 -155 -48 c-422
-133 -517 -163 -660 -210 -85 -27 -162 -51 -170 -53 -15 -3 -143 -44 -330
-103 -155 -50 -335 -106 -340 -107 -3 0 -72 -22 -155 -49 -302 -96 -552 -175
-635 -201 -47 -15 -134 -42 -194 -61 l-109 -34 -31 23 c-17 14 -37 42 -44 63
-7 21 -17 48 -22 59 -5 11 -28 72 -51 135 -22 63 -45 119 -51 125 -5 6 -83 10
-192 10 l-183 0 -94 68 c-137 98 -132 93 -124 117 13 41 -4 90 -38 110 -45 28
-81 25 -119 -9 -26 -23 -32 -36 -32 -69 0 -76 67 -118 139 -88 l37 16 93 -67
c52 -37 91 -71 88 -75 -3 -5 -11 -7 -19 -4 -12 5 -14 -44 -14 -309 l0 -314
-62 -19 c-35 -10 -267 -83 -516 -162 -445 -141 -453 -143 -467 -123 -19 27
-69 47 -98 39 -107 -26 -100 -178 9 -193 35 -4 46 -1 73 23 17 16 32 39 34 52
2 12 7 26 13 31 8 7 75 24 150 37 16 3 57 11 90 19 34 8 73 16 85 19 13 2 69
14 124 26 55 12 111 24 125 26 14 3 86 19 160 35 74 16 144 31 155 33 11 2 40
9 65 15 25 6 48 11 53 11 4 0 7 -251 7 -559 l0 -559 165 0 165 -1 0 595 0 594
25 6 c14 4 27 5 29 3 2 -4 22 -58 264 -724 66 -181 130 -356 142 -387 l21 -58
127 0 127 0 159 433 c88 237 163 436 166 440 6 7 132 -75 195 -126 10 -8 160
-115 251 -180 27 -18 92 -65 144 -103 52 -37 280 -200 505 -362 226 -161 419
-300 430 -308 11 -8 53 -39 94 -68 l75 -54 0 -52 c1 -44 5 -55 29 -76 48 -41
123 -27 150 29 8 16 13 37 12 46 -2 9 -4 21 -4 28 -1 6 -12 24 -25 40 l-24 28
189 505 c104 278 204 546 223 595 19 50 85 225 146 390 262 707 241 655 273
655 16 0 41 7 56 16 29 17 31 16 269 -161 1 -1 -20 -25 -47 -53 -92 -99 -141
-218 -142 -350 -1 -153 44 -268 145 -367 113 -111 242 -156 511 -180 165 -15
232 -25 292 -46 64 -22 98 -47 132 -96 20 -31 25 -49 25 -109 1 -62 -3 -77
-29 -120 -39 -62 -101 -109 -173 -131 -81 -26 -296 -25 -371 0 -119 40 -190
117 -219 236 l-17 69 -174 0 -174 0 7 -65 c30 -288 277 -513 616 -558 118 -16
306 -3 431 29 241 63 414 239 445 453 31 211 -38 400 -192 521 -76 60 -222
114 -342 127 -31 4 -68 8 -82 10 -14 2 -54 6 -90 10 -36 3 -83 9 -105 12 -22
2 -53 7 -70 9 -88 11 -131 29 -174 74 -57 60 -63 169 -14 248 16 26 40 53 54
61 23 13 29 11 79 -25 30 -21 57 -41 60 -44 3 -3 20 -16 38 -29 26 -19 32 -28
29 -50 -15 -96 99 -152 168 -84 27 28 34 78 14 115 -10 18 -7 25 17 48 16 15
217 218 446 451 l416 424 541 0 541 0 1 25 c1 30 1 273 0 281 -1 3 -171 5
-378 4 -208 -1 -382 1 -386 3 -5 2 68 81 162 176 93 94 243 246 333 339 147
150 166 167 196 167 51 0 92 46 92 102 0 79 -76 120 -145 79 -29 -17 -40 -19
-63 -10 -15 6 -110 35 -212 64 -102 30 -239 70 -305 90 -66 20 -124 38 -130
39 -5 2 -23 6 -40 11 -16 4 -48 13 -70 20 l-40 13 0 78 0 79 493 0 492 0 1 37
c0 21 1 74 1 118 0 44 -1 98 -1 120 l-1 39 -665 0 -665 0 -1 -22 c0 -12 -1
-95 -1 -184 -1 -143 -3 -161 -17 -157 -28 7 -111 31 -301 89 -102 31 -198 60
-215 64 -138 36 -285 86 -285 97 0 7 13 48 29 91 16 43 50 134 74 203 43 119
46 124 73 126 42 2 41 2 69 29 38 39 35 97 -7 137 -28 26 -38 29 -73 25 -29
-4 -47 -14 -66 -36 l-26 -31 -159 31 c-87 17 -177 35 -199 39 -22 5 -58 11
-80 14 -22 4 -47 8 -55 11 -14 4 -30 7 -97 20 -39 8 -133 25 -163 31 -14 2
-45 9 -70 14 -25 5 -58 12 -75 15 -33 5 -54 9 -130 25 -72 15 -96 20 -130 25
-67 12 -67 11 -31 68 64 102 104 237 122 407 4 46 5 342 0 400 -21 268 -101
453 -254 591 -80 71 -153 113 -263 150 -84 29 -109 33 -230 36 -74 2 -137 1
-140 -1z m199 -316 c126 -26 230 -109 282 -223 49 -110 64 -213 63 -437 0
-242 -26 -368 -98 -477 -36 -54 -92 -103 -118 -103 -8 0 -93 15 -189 34 -95
19 -188 37 -205 40 -45 8 -95 18 -113 21 -8 2 -20 4 -26 4 -29 2 -86 171 -99
296 -8 74 -8 327 0 404 10 86 43 200 76 258 82 143 256 217 427 183z m-2279
-43 c149 -57 238 -197 258 -406 8 -92 9 -358 0 -367 -3 -3 -65 6 -139 20 -73
14 -182 35 -243 47 -60 11 -128 24 -150 30 -22 5 -51 11 -65 13 -14 2 -36 7
-50 10 -14 3 -41 8 -60 11 -19 3 -42 7 -50 9 -13 2 -15 48 -16 328 l-1 325
236 -2 c192 -1 244 -5 280 -18z m-1345 -482 c21 -2 47 -7 56 -10 22 -7 39 -11
145 -30 44 -8 125 -24 180 -35 55 -11 101 -20 103 -20 1 0 2 -15 2 -34 l0 -34
-117 35 c-65 19 -194 56 -287 83 -93 27 -173 53 -179 59 -8 8 0 8 24 0 19 -5
51 -12 73 -14z m896 -176 c25 -6 56 -12 70 -14 14 -2 72 -14 130 -25 127 -26
126 -26 170 -34 46 -8 65 -12 185 -36 55 -11 111 -21 125 -24 27 -4 28 -9 17
-83 -12 -82 -18 -94 -39 -87 -11 3 -26 7 -32 8 -6 2 -45 13 -86 25 -93 28
-440 132 -536 160 l-71 21 0 50 c0 55 0 55 67 39z m-11 -124 c23 -8 44 -14 46
-14 7 0 19 -4 344 -100 150 -45 277 -84 282 -87 14 -8 -40 -100 -85 -146 -89
-89 -157 -105 -431 -104 l-210 1 -1 233 c-1 127 2 232 6 232 4 0 26 -7 49 -15z
m1211 -109 c312 -64 281 -58 455 -91 160 -30 177 -33 191 -34 6 -1 24 -25 39
-53 16 -29 53 -96 83 -148 96 -167 95 -163 78 -157 -15 6 -321 96 -346 102 -8
2 -73 22 -145 43 -71 22 -193 58 -270 81 -224 66 -275 82 -275 88 0 3 6 31 14
62 8 31 17 73 21 95 7 44 0 43 155 12z m765 -150 c91 -19 114 -24 150 -31 17
-3 75 -14 130 -25 55 -11 111 -21 125 -24 14 -2 36 -7 50 -10 28 -6 72 -15
110 -21 14 -2 45 -8 70 -14 25 -5 61 -13 80 -16 19 -3 89 -17 155 -30 66 -13
134 -26 150 -29 17 -3 120 -23 230 -45 110 -22 213 -42 230 -45 16 -3 108 -21
205 -40 149 -30 540 -106 620 -121 14 -3 50 -10 80 -16 30 -5 66 -12 80 -15
41 -8 60 -15 59 -22 -4 -25 4 -46 26 -67 28 -29 30 -19 -50 -240 -26 -71 -54
-149 -62 -173 -13 -37 -18 -42 -37 -36 -11 4 -66 20 -121 36 -55 17 -145 43
-200 59 -55 17 -107 32 -115 34 -8 2 -85 25 -170 50 -85 26 -162 48 -170 51
-8 2 -114 33 -235 69 -121 37 -231 69 -244 71 -14 3 -28 7 -32 10 -8 5 -271
83 -299 89 -8 2 -51 14 -95 28 -91 29 -135 42 -406 122 l-196 58 -69 121
c-115 202 -133 236 -126 236 4 0 39 -7 77 -14z m410 -447 c132 -39 247 -72
255 -74 8 -3 51 -15 95 -29 44 -13 159 -47 255 -75 96 -28 211 -62 255 -76 44
-13 118 -35 165 -49 47 -13 153 -45 235 -69 83 -24 159 -47 170 -50 11 -3 90
-26 175 -52 272 -81 344 -103 372 -109 27 -6 32 -24 17 -51 -4 -5 -12 -27 -19
-48 l-12 -39 -16 24 c-75 111 -256 207 -422 224 -51 5 -758 9 -880 5 l-25 -1
0 -511 c0 -281 -3 -513 -7 -516 -5 -2 -8 0 -8 4 0 5 -22 47 -48 93 -166 292
-238 419 -254 450 -10 19 -28 51 -39 70 -12 19 -52 89 -89 155 -37 66 -76 136
-87 155 -267 471 -363 643 -363 646 0 3 8 3 18 0 9 -3 125 -38 257 -77z m2095
-620 c36 -11 72 -22 80 -24 18 -5 137 -39 205 -59 28 -8 145 -43 260 -78 l210
-63 1 -396 2 -395 -27 -11 c-14 -6 -80 -27 -146 -48 -118 -36 -326 -101 -560
-175 -218 -70 -238 -75 -242 -65 -2 6 -35 80 -74 165 -39 85 -73 164 -75 175
-4 16 7 27 55 53 81 43 170 136 209 214 83 171 85 376 6 544 -25 53 -25 62 5
129 5 11 12 28 15 38 3 9 7 17 8 17 2 0 32 -10 68 -21z m-620 -154 c61 -10
135 -51 176 -98 108 -127 75 -341 -64 -411 -72 -36 -99 -39 -369 -41 -248 -1
-253 0 -254 20 0 11 -1 136 -2 277 -2 250 -1 257 18 260 42 6 452 0 495 -7z
m1903 -226 c94 -28 177 -52 182 -53 6 -1 51 -15 100 -30 50 -15 120 -36 158
-47 170 -49 207 -61 202 -68 -2 -5 -189 -8 -415 -8 l-410 0 0 129 c0 70 2 128
5 128 3 0 83 -23 178 -51z m666 -310 l25 -20 -136 -137 c-75 -75 -228 -231
-341 -346 l-205 -210 -96 -1 -96 -1 2 240 3 240 75 24 c41 12 82 25 90 27 32
9 411 129 520 165 63 21 120 39 125 39 6 0 21 -9 34 -20z m-825 -211 c-3 -4
-9 -8 -15 -8 -5 0 -9 4 -9 8 0 5 7 9 15 9 8 0 12 -4 9 -9z m-1788 -238 c92
-212 88 -197 64 -263 -12 -31 -26 -57 -32 -57 -9 0 -202 -60 -419 -130 -24 -7
-28 -4 -53 41 l-26 49 0 244 0 243 206 -1 205 -1 55 -125z m1422 -227 c0 -181
1 -333 1 -338 1 -7 40 -10 104 -10 56 1 106 -1 110 -3 4 -2 -86 -98 -200 -214
-297 -301 -314 -318 -322 -318 -3 0 -20 9 -37 19 -32 20 -164 66 -219 77 -70
13 -228 16 -307 4 -129 -19 -257 -66 -348 -130 l-25 -18 -124 91 -123 92 -2
52 c-1 43 -6 55 -28 72 l-27 21 19 48 c11 26 52 140 92 253 l73 205 60 18 c59
17 205 63 500 157 408 130 784 247 796 248 3 1 6 -146 7 -326z m-1314 -66
c-31 -18 -42 -4 -26 33 l15 35 12 -30 c11 -25 11 -31 -1 -38z m-112 -159
c-101 -285 -126 -354 -134 -364 -4 -6 -21 -11 -36 -12 -30 -1 -35 6 -145 208
-17 30 -37 66 -46 80 -45 70 -61 58 178 136 119 39 217 70 219 68 2 -1 -14
-53 -36 -116z m-432 -5 c0 -7 -7 -13 -15 -13 -11 0 -15 11 -15 38 l1 37 14
-25 c8 -14 14 -31 15 -37z m70 -115 c29 -51 67 -118 83 -148 17 -30 39 -68 48
-84 17 -28 17 -30 -2 -58 -11 -15 -21 -37 -22 -47 -1 -15 -13 -23 -52 -31
-149 -33 -196 -43 -375 -81 -107 -22 -226 -47 -265 -55 -38 -8 -108 -23 -155
-34 -47 -11 -103 -22 -125 -26 -22 -3 -43 -8 -46 -10 -3 -2 -20 -6 -37 -9 -17
-3 -84 -17 -149 -31 -65 -14 -129 -28 -143 -30 -14 -3 -53 -11 -88 -19 -34 -8
-77 -17 -95 -20 -17 -4 -52 -11 -77 -16 -25 -6 -54 -13 -65 -15 -11 -3 -42 -9
-70 -14 -72 -14 -80 -16 -180 -39 -149 -33 -155 -34 -156 -14 -2 54 2 267 5
270 2 3 60 22 128 43 68 21 175 55 238 75 63 20 149 47 190 60 152 47 1247
393 1290 407 25 9 50 16 56 17 7 0 35 -41 64 -91z m131 -411 l27 -32 -126
-338 c-69 -185 -128 -337 -131 -337 -7 0 -4 690 3 697 5 5 64 20 116 29 19 3
37 8 39 10 13 13 50 -2 72 -29z m-577 -679 c-1 -645 -3 -675 -51 -773 -72
-144 -225 -215 -407 -188 -159 23 -250 102 -301 263 -16 49 -18 110 -20 592
l-2 536 26 7 c31 8 56 13 96 21 17 2 46 9 65 14 19 5 49 11 65 14 17 3 93 20
170 37 77 17 151 32 165 35 28 4 195 41 195 43 0 1 0 -270 -1 -601z m-2083
305 c-22 -60 -42 -116 -46 -125 -7 -17 -43 -31 -115 -43 -19 -3 -53 -10 -75
-16 -22 -5 -51 -12 -65 -15 -14 -2 -56 -11 -93 -19 -37 -9 -73 -12 -80 -8 -7
4 -47 33 -90 64 l-78 57 123 40 c68 22 184 59 258 82 74 23 167 52 205 65 39
13 75 24 82 24 8 1 -2 -38 -26 -106z m992 -1096 c34 -111 65 -171 123 -243 48
-58 45 -60 -16 -15 -19 14 -80 58 -135 97 -100 70 -397 284 -404 290 -2 2 -4
742 -2 891 1 40 3 43 39 52 20 6 53 13 72 16 19 3 51 10 70 15 19 5 51 12 70
15 19 3 60 11 90 18 l55 12 5 -530 6 -530 27 -88z m2740 1128 c26 -9 47 -20
47 -24 0 -4 -26 -32 -57 -63 -44 -44 -62 -55 -73 -48 -24 16 -73 11 -104 -9
l-29 -19 -81 60 c-107 79 -104 75 -70 89 105 43 269 49 367 14z m-4413 -131
c0 -2 -7 -4 -15 -4 -8 0 -15 4 -15 10 0 5 7 7 15 4 8 -4 15 -8 15 -10z m107
-76 c94 -69 95 -67 -5 -83 -19 -3 -37 -7 -41 -9 -14 -9 -27 10 -53 76 -25 64
-24 74 5 77 5 1 47 -27 94 -61z m513 7 c0 -2 -7 -19 -14 -37 -8 -18 -31 -78
-51 -133 -20 -55 -38 -102 -40 -103 -2 -2 -64 40 -139 94 -75 54 -134 99 -133
100 1 2 74 18 162 38 88 19 169 36 180 39 30 7 35 7 35 2z m-902 -112 c17 -44
17 -53 5 -57 -29 -12 -33 -5 -33 56 0 34 2 59 4 57 2 -2 13 -27 24 -56z m1190
-198 c0 -135 -2 -245 -4 -245 -7 0 -144 101 -144 106 0 3 9 26 19 52 11 26 36
92 56 147 57 157 68 185 70 185 2 0 3 -110 3 -245z m-597 157 c52 -37 117 -85
146 -105 l52 -38 -34 -92 c-19 -51 -62 -170 -97 -264 -35 -95 -65 -173 -68
-173 -3 0 -18 35 -34 78 -80 219 -171 466 -199 539 -17 46 -28 85 -25 88 5 5
123 32 149 34 8 1 58 -30 110 -67z m-953 -49 l-3 -47 -55 -12 c-30 -6 -91 -19
-135 -28 -44 -10 -89 -20 -100 -22 -11 -2 -29 -6 -40 -9 -50 -11 -75 -16 -169
-35 -56 -12 -139 -30 -186 -40 -47 -10 -98 -21 -115 -24 -16 -3 -43 -8 -60
-12 -56 -12 -21 4 65 29 47 14 240 75 430 136 190 60 351 110 358 110 9 1 12
-12 10 -46z m2714 -1164 c25 -10 57 -20 70 -23 13 -3 45 -9 71 -14 105 -21
353 -7 430 23 9 4 17 3 17 -1 0 -5 -22 -65 -48 -134 -46 -123 -48 -125 -79
-127 -18 0 -42 -8 -54 -16 -20 -15 -28 -11 -148 76 -69 50 -127 95 -129 99 -2
5 -8 8 -13 8 -4 0 -43 26 -86 58 -43 32 -87 64 -98 71 l-20 13 20 -8 c11 -3
41 -15 67 -25z"/>
<path d="M2550 5373 c-70 -14 -111 -79 -111 -179 0 -118 53 -184 150 -186 51
0 94 24 122 68 30 49 32 175 3 224 -35 60 -94 86 -164 73z m105 -106 c20 -48
11 -144 -16 -173 -48 -51 -128 -13 -130 63 -2 59 1 86 12 115 22 56 110 53
134 -5z"/>
<path d="M2797 5367 c-7 -20 8 -40 32 -44 17 -2 21 2 21 27 0 25 -4 30 -24 30
-13 0 -26 -6 -29 -13z"/>
<path d="M2119 5363 c0 -4 -1 -84 -2 -178 l0 -170 96 0 c81 1 101 4 124 21 39
29 56 70 58 138 3 82 -9 124 -44 160 -30 30 -35 31 -131 34 -55 2 -100 0 -101
-5z m188 -76 c21 -21 29 -114 14 -160 -14 -41 -29 -49 -92 -51 l-47 -2 1 119
0 119 54 -4 c31 -3 61 -12 70 -21z"/>
<path d="M3391 5281 c-11 -11 -25 -15 -37 -11 -10 3 -25 5 -31 4 -7 -1 -22 -2
-33 -3 -52 -3 -87 -80 -60 -132 8 -14 6 -25 -6 -44 -15 -22 -15 -27 -1 -48 12
-19 12 -24 1 -35 -15 -14 -18 -60 -6 -78 23 -35 122 -49 181 -25 39 17 59 67
40 103 -15 28 -50 42 -111 43 -62 1 -73 6 -65 28 3 9 18 13 44 12 81 -5 130
58 103 131 -7 18 -5 24 10 29 11 4 20 11 20 16 0 5 1 12 3 16 5 15 -36 10 -52
-6z m-45 -49 c39 -26 33 -87 -11 -98 -32 -8 -75 19 -75 46 0 40 55 73 86 52z
m42 -226 c17 -10 15 -41 -4 -57 -8 -7 -35 -13 -59 -13 -24 0 -51 6 -59 13 -20
17 -21 47 0 59 18 10 105 9 122 -2z"/>
<path d="M3035 5273 c-11 -3 -28 -12 -37 -21 -16 -14 -18 -14 -18 2 0 12 -7
16 -22 14 -22 -3 -23 -7 -24 -118 0 -132 1 -140 27 -140 17 0 19 8 19 80 0 43
5 90 11 103 14 31 47 47 77 36 25 -9 25 -12 27 -123 1 -64 4 -81 18 -90 27
-17 32 1 31 101 -1 112 -8 131 -50 149 -18 8 -35 13 -36 13 -2 -1 -12 -4 -23
-6z"/>
<path d="M2802 5143 c3 -119 4 -128 23 -131 19 -3 20 3 20 125 0 126 0 128
-23 131 l-23 3 3 -128z"/>
<path d="M2122 4911 c-13 -13 -12 -16 1 -20 12 -5 562 -6 600 -2 12 2 8 31 -5
32 -7 0 -141 1 -297 2 -237 2 -287 0 -299 -12z"/>
<path d="M2784 4598 c1 -182 1 -183 23 -186 19 -3 22 0 16 15 -6 16 -5 16 10
5 9 -8 32 -18 52 -22 28 -6 41 -4 67 14 44 29 57 59 54 125 -3 71 -26 108 -77
121 -31 9 -45 8 -69 -5 l-30 -16 -1 43 c-1 24 0 53 1 66 1 17 -4 22 -23 22
l-24 0 1 -182z m145 25 c43 -35 43 -136 1 -166 -27 -19 -68 -10 -86 18 -18 27
-21 94 -5 123 11 20 40 39 62 41 4 1 17 -7 28 -16z"/>
<path d="M3080 4611 c0 -184 5 -201 55 -201 35 0 41 19 12 44 -25 21 -25 23
-25 161 0 177 1 165 -22 165 -19 0 -20 -7 -20 -169z"/>
<path d="M1302 4592 l1 -178 33 -2 34 -3 0 69 0 69 38 1 c36 2 38 0 65 -59 15
-34 27 -65 27 -70 0 -5 18 -8 39 -7 l40 1 -15 34 c-50 116 -48 103 -20 132 49
52 43 130 -14 169 -29 19 -46 22 -130 22 l-98 0 0 -178z m199 97 c25 -40 -1
-77 -56 -79 -77 -3 -75 -5 -75 49 0 39 4 50 18 53 30 6 104 -9 113 -23z"/>
<path d="M1630 4592 l2 -178 111 -2 c133 -1 147 2 147 33 0 29 -8 32 -107 30
l-83 -1 0 48 0 47 83 3 c80 3 82 4 82 28 0 24 -2 25 -83 28 l-82 3 0 39 0 39
93 3 92 3 3 28 3 27 -131 0 -131 0 1 -178z"/>
<path d="M2277 4664 c-31 -17 -47 -43 -47 -78 0 -32 34 -55 91 -62 46 -6 69
-18 69 -39 0 -41 -83 -51 -114 -13 -20 25 -56 33 -56 13 0 -23 41 -65 73 -73
70 -19 137 18 137 74 0 44 -29 70 -90 78 -26 4 -54 14 -61 22 -11 14 -10 19
10 35 13 11 31 19 40 19 20 -1 51 -24 51 -39 0 -6 11 -11 24 -11 20 0 22 4 18
26 -9 48 -91 76 -145 48z"/>
<path d="M2544 4665 c-36 -15 -62 -63 -39 -72 9 -3 25 5 40 21 29 31 65 34 90
6 22 -24 13 -50 -17 -51 -71 -2 -94 -8 -116 -34 -28 -33 -24 -81 9 -107 27
-23 102 -24 119 -3 12 14 15 14 30 0 9 -8 24 -15 34 -15 23 0 33 30 13 42 -13
7 -16 24 -15 89 1 73 -1 83 -24 105 -28 29 -82 37 -124 19z m102 -138 c4 -3 1
-20 -6 -36 -14 -35 -55 -53 -87 -38 -25 11 -31 48 -10 65 20 17 89 23 103 9z"/>
<path d="M3281 4667 c-45 -16 -71 -53 -76 -108 -9 -116 84 -186 177 -132 37
22 51 63 21 63 -10 0 -25 -9 -33 -20 -15 -20 -64 -27 -86 -12 -16 11 -37 53
-29 60 3 4 43 7 88 7 78 0 82 1 85 23 12 83 -67 146 -147 119z m87 -55 c27
-35 15 -48 -45 -47 -63 0 -77 9 -62 38 21 37 80 43 107 9z"/>
<path d="M1949 4658 c-5 -59 2 -186 11 -208 17 -42 96 -56 132 -23 17 15 18
15 18 0 0 -10 8 -17 20 -17 21 0 22 5 22 115 0 143 -1 147 -23 143 -20 -3 -21
-10 -23 -89 -1 -98 -17 -129 -66 -129 -37 0 -43 17 -46 120 -1 47 -3 88 -3 93
-2 12 -41 8 -42 -5z"/>
<path d="M1300 4300 c0 -18 12 -18 295 -19 282 0 295 1 295 19 0 18 -13 19
-295 19 -283 0 -295 0 -295 -19z"/>
<path d="M1260 4170 c-47 -11 -90 -61 -90 -103 1 -57 48 -96 128 -103 63 -6
84 -20 80 -52 -2 -21 -11 -30 -37 -38 -47 -15 -81 -6 -99 26 -12 21 -24 28
-48 28 -29 0 -32 -2 -28 -26 21 -116 245 -127 278 -14 21 73 -22 127 -110 137
-71 9 -94 20 -94 44 0 24 19 39 58 47 25 5 36 1 58 -21 15 -15 40 -29 56 -32
24 -4 28 -1 28 20 0 24 -54 87 -75 87 -7 0 -25 2 -41 4 -16 3 -45 1 -64 -4z"/>
<path d="M1507 4168 c-8 -26 5 -48 27 -44 14 2 22 11 24 29 3 23 0 27 -22 27
-13 0 -26 -6 -29 -12z"/>
<path d="M2190 4011 c0 -143 3 -172 16 -186 23 -23 69 -16 69 10 0 13 -6 19
-18 17 -20 -3 -19 -13 -22 163 -3 176 -1 165 -25 165 -19 0 -20 -7 -20 -169z"/>
<path d="M2619 4178 c-1 -2 -3 -30 -4 -63 -2 -33 -3 -61 -4 -62 -1 -1 -13 4
-27 12 -37 19 -84 10 -117 -23 -25 -25 -29 -37 -30 -95 -2 -53 2 -71 19 -94
30 -40 79 -55 123 -37 24 10 38 11 45 4 5 -5 16 -10 23 -10 10 0 13 40 13 185
0 178 -1 185 -20 185 -11 0 -21 -1 -21 -2z m-34 -161 c22 -18 27 -32 28 -75 2
-60 -23 -94 -68 -94 -44 0 -60 25 -60 93 0 52 4 64 24 80 30 25 44 24 76 -4z"/>
<path d="M410 3991 l0 -179 33 1 32 2 0 112 c0 62 2 109 6 105 4 -4 14 -27 23
-52 52 -151 60 -165 86 -162 22 3 30 16 65 113 21 61 42 112 45 114 3 2 4 -51
3 -117 l-2 -119 32 3 32 3 3 178 3 177 -44 0 c-39 0 -46 -3 -55 -27 -6 -16
-25 -66 -42 -113 -18 -47 -34 -89 -37 -94 -3 -5 -19 27 -34 70 -65 179 -55
164 -105 164 l-44 0 0 -179z"/>
<path d="M839 4163 c-1 -5 -1 -62 -1 -129 0 -137 12 -178 62 -207 36 -22 107
-24 145 -6 61 30 70 57 72 210 l1 139 -34 0 -34 0 0 -130 c0 -117 -2 -132 -20
-150 -12 -12 -33 -20 -55 -20 -58 0 -70 32 -70 179 l1 121 -33 0 c-18 0 -33
-3 -34 -7z"/>
<path d="M3039 4123 c-1 -10 -1 -26 0 -35 2 -13 -5 -18 -23 -18 -19 0 -26 -5
-26 -20 0 -14 7 -20 23 -20 23 0 24 -2 24 -92 0 -83 2 -93 23 -110 32 -26 94
-21 98 8 3 18 -1 20 -27 16 -39 -5 -48 14 -48 106 l-1 72 39 0 c32 0 39 3 39
20 0 17 -7 20 -41 20 -32 0 -40 3 -38 18 4 39 -2 52 -21 52 -12 0 -20 -7 -21
-17z"/>
<path d="M1702 4068 c-45 -12 -72 -59 -72 -126 0 -66 20 -105 60 -122 65 -27
129 -5 149 51 9 27 8 29 -13 29 -14 0 -28 -10 -36 -25 -16 -30 -69 -35 -92 -7
-47 53 -23 158 37 167 20 2 55 -18 60 -37 4 -11 16 -18 30 -18 22 0 23 2 13
31 -18 51 -73 74 -136 57z"/>
<path d="M1964 4068 c-35 -9 -48 -22 -58 -55 -6 -20 -4 -23 18 -23 16 0 26 6
26 15 0 20 37 38 66 31 22 -6 54 -50 43 -60 -2 -2 -31 -6 -64 -9 -48 -4 -64
-11 -82 -32 -41 -48 -21 -106 44 -124 24 -7 40 -5 66 8 27 14 36 15 46 4 6 -7
21 -13 32 -13 26 0 37 30 16 42 -13 7 -16 24 -15 89 1 74 -1 83 -24 106 -28
27 -65 34 -114 21z m90 -145 c3 -7 0 -24 -6 -38 -22 -49 -108 -51 -108 -2 0
30 16 44 55 49 50 6 54 5 59 -9z"/>
<path d="M2787 4064 c-26 -14 -47 -42 -47 -63 0 -17 34 -7 58 17 38 38 87 25
97 -27 3 -18 -1 -21 -28 -22 -18 -1 -39 -2 -47 -3 -8 -2 -22 -3 -31 -4 -29 -3
-59 -41 -59 -75 0 -18 4 -37 8 -43 22 -33 103 -45 137 -20 16 12 21 11 33 -1
8 -8 24 -13 35 -11 23 3 33 38 11 38 -11 0 -14 18 -14 84 0 74 -3 88 -22 110
-28 31 -91 40 -131 20z m106 -136 c6 -17 -7 -51 -27 -67 -23 -19 -67 -17 -83
5 -20 27 5 58 53 65 22 3 42 7 45 8 4 0 9 -5 12 -11z"/>
<path d="M3270 4068 c-35 -13 -60 -38 -60 -60 0 -25 36 -24 50 2 22 41 91 34
103 -10 6 -24 0 -27 -65 -34 -60 -6 -86 -20 -95 -54 -9 -36 -5 -53 20 -79 24
-27 91 -32 122 -9 16 11 21 11 33 0 20 -21 52 -18 52 5 0 11 -4 21 -10 23 -5
2 -10 40 -11 86 -1 70 -5 87 -23 108 -23 27 -77 37 -116 22z m92 -163 c-10
-56 -88 -79 -112 -34 -16 29 11 57 59 61 51 4 59 0 53 -27z"/>
<path d="M1512 3943 c3 -120 4 -128 23 -128 19 0 20 7 20 125 0 123 0 125 -23
128 l-23 3 3 -128z"/>
<path d="M410 3700 c0 -19 8 -20 520 -19 508 0 520 1 520 20 0 19 -12 19 -520
19 -512 0 -520 0 -520 -20z"/>
</g>
</svg>
